
  <svg id="Layer_2" data-name="Layer 2" xmlns="http://www.w3.org/2000/svg" viewBox="0 0 302.31 375.13" class="logo">

    <g id="Layer_4" data-name="Layer 4" class="group">
      <path class="cls-1" d="M222.99,172.5c.72,4.33,4.17,7.59,6.68,11.19,5.67,8.12,6.65,19.28,2.5,28.27-3.72,8.05-10.98,13.97-15.12,21.81-4.14,7.84-3.35,19.88,4.98,22.9,3.21,1.16,6.76.67,10.13,1.19s7.04,2.78,7.07,6.19c.01,1.54-.73,2.97-1.45,4.33-6.48,12.21-12.97,24.42-19.45,36.63-5.31,9.99-10.82,20.25-19.5,27.51-8.54,7.14-19.39,10.76-29.96,14.22-10.17,3.34-20.86,6.71-31.4,4.85-11.54-2.04-20.99-10.02-29.85-17.69-12.01-10.41-24.02-20.82-36.03-31.23-4.34-3.76-8.8-7.68-11.2-12.89s-2.17-12.11,2.11-15.93c5.27-4.71,13.47-2.78,20.18-.59,9.72,3.18,19.54,6.41,28.27,11.75,8.72,5.34,16.37,13.08,19.61,22.78,1.87,5.61,2.76,12.47,7.95,15.32,5.83,3.19,13.31-1.35,16.23-7.32,4.68-9.56,1.33-21.5-5.41-29.75-6.74-8.25-16.3-13.59-25.61-18.75-17.58-9.72-35.68-19.62-55.59-22.27-12.97-1.72-28.41,1.07-34.65,12.56-3.48,6.42-3.26,14.36-.91,21.28s6.63,13,11.06,18.81c16.31,21.37,35.54,40.51,56.98,56.72,10.08,7.62,20.87,14.69,33,18.22,22.24,6.46,46.84.01,65.92-13.1,19.08-13.12,33.26-32.26,44.67-52.41,11.41-20.15,20.4-41.57,31.39-61.96,13.09-24.28,29.59-49.55,26.28-76.93-2.08-17.21-12.54-33.2-27.48-42-3.45-2.03-7.27-3.74-11.28-3.74s-8.23,2.03-9.81,5.72c-1.61,3.76-.13,8.22,2.4,11.43s6,5.53,9.09,8.21c10.33,8.96,16.55,22.48,16.64,36.15s-5.97,27.27-16.19,36.35c-3.11,2.77-7.46,5.24-11.26,3.53-3.15-1.42-4.54-5.28-4.29-8.72s1.77-6.64,2.98-9.87c3.37-9.06,4.24-19.5.1-28.24-3.06-6.46-9.21-11.57-16.26-12.99-5.62-1.13-14.87.46-13.54,8.48Z" />
      <path class="cls-1" d="M97.69,158.88c2.89-4.5,7.56-5.95,10.27-4.42,1.88,1.06,2.46,3.37,2.63,4.27.64,2.74,1.47,8.13-.59,14.19-.81,2.4-1.89,4.35-2.9,5.84-3.15,4.43-8.58,5.65-12.07,3.54-3.37-2.03-3.69-6.41-3.72-6.88.02-.3.04-.6.06-.9.36-4.1,1.8-9.57,6.31-15.64Z" />
      <path class="cls-1" d="M94.98,190.58c-.7.25-1.69.69-2.69,1.5-3.4,2.75-4.29,7.27-4.02,9.94.57,5.63,1.83,12.35,4.49,19.62.97,2.65,2.02,5.09,3.11,7.33.79,1.19,1.87,2.57,3.3,3.95.92.88,1.82,1.6,2.64,2.19.66.54,2.1,1.56,4.22,1.97,2.05.4,3.72.02,4.54-.23.12-.11.33-.31.56-.56,2.26-2.42,2.91-5.27,3.17-6.52,1.21-5.86,1.16-11.98,2.33-18.49,1-5.59,1.38-7.72,2.03-12.85.4-3.13-.62-6.04-2.78-7.51-.91-.62-1.76-.8-2.77-.99-2.65-.5-3.49.38-7.3.8-2.85.32-6.78.31-8.13-.06-.17-.05-.91-.27-1.88-.2-.35.02-.64.08-.81.12Z" />
      <path class="cls-1" d="M279.02,98.13s-16.58,3.25-23.95-3.14c-7.37-6.39-16.15-9.86-16.15-9.86,0,0-12.36-4.44-5.31-4.99s12.46-6.94,15.5-11.92c3.03-4.99-1.73-3.47-1.73-3.47,0,0-19.79,4.58-25.94,4.51s-10.03-4.26-10.03-4.26c-6.77-8.59-38.41-14.58-43.69-13.82-2.27,0-4.33-.55-6.15-1.72,5.41-28.24-2.55-27.47.71-35.61,3.25-8.14-12.32-6.97-12.32-6.97,0,0-10.69-3.25-24.64-6.28-13.95-3.02-13.48,6.51-13.48,6.51-1.91,4.31,16.6,41.36,16.6,41.36,1.09,2-.53,3.05-3.5,3.61-7.99,1.23-5.94.2-14.07.7-18.2,2.89-16.2,7.17-22.12,8.51,0,0-21.32-.93-31.19-10.8s-5.23,3.25-5.23,3.25c9.45,23.57,12.42,19.97,18.09,21.04s1.5,3.53,1.5,3.53c0,0-6.52,2.67-17.53,8.23-11.01,5.56-19.78,17.32-20.2,20.63-.43,3.31,2.35,1.39,2.35,1.39,3.1-2.35,12.4-8.12,19.46-9.41s11.44-4.06,11.44-4.06c5.67-.32,1.82,4.81,1.82,4.81-8.44,8.44-26.62,31.11-27.58,36.77-.96,5.67,2.89,4.06,2.89,4.06,0,0,8.44.53,27.9-10.9,19.46-11.44,31.53-23.41,31.53-23.41,0,0,9.76-14.42,6.44.06-3.32,14.48,7.83,34.04,12.19,42.2,4.68,8.75,8.18,1.18,9.57-3.31,0,0,2.06-15.07,11.71-22.61s12.94-12.53,12.94-12.53c6.1-7.15,4.38-1.19,6.2-.24,10.65,15.97,20.56,20.38,20.56,20.38,0,0,20.96,13.2,28.58,26.77,7.62,13.57,6.36,1.55,6.36,1.55,1.18-21.15-5.46-50.84-5.46-50.84-1.78-6.17,3.59-2.07,3.67-2.04,7.13,7.23,17.63,9.84,17.63,9.84,27,5.36,42.83-8.73,45.87-13.28,3.03-4.55-1.19-4.23-1.19-4.23ZM147.37,49.88c-1.72.74-4.18-.32-4.91-2.68-1.81-3.59-3.89-7.38-6.29-11.3-3.15-5.14-6.36-9.71-9.46-13.72-1.8-3.59-.94-7.55,1.54-9.31,2.14-1.52,3.7-.47,4.23-.33.69.39,2.47.98,3.35,1.24,2.67.78,4.34,1.53,5.03,2.47.6.69,1.56,1.62,2.93,2.35,1.57.83,2.4.72,3.3,1.32.99.66,2,2.15,1.99,5.8-.34,4.53-.45,9.49-.17,14.8.1,1.91.24,3.76.42,5.55.18,1.7-.67,3.27-1.96,3.83Z" />
      <path class="cls-1" d="M25.28,122.28c5.86-4.22,10.97-5.83,12.3-4.36,1.24,1.38-.59,5.66-4.03,10.17-1.13,1.77-2.24,3.71-3.29,5.82-3.64,7.3-5.39,14.24-6.23,19.88-.88,4.74-1.13,8.64-1.2,11.34-.14,6.03.55,9.98-.91,16.03-.48,1.98-1.04,3.56-1.44,4.58-2.21,5.45-1.14,10.97,2.24,13.51,1.77,1.33,3.83,1.59,5.26,1.57,1.71-.1,3.71-.23,5.95-.42,11.54-.97,15.63-2.19,22.42-1.25,2.27.31,4.1.77,5.25,1.09.97.57,2.16,1.17,3.57,1.7,1.49.56,2.85.89,4,1.1,1.56.07,3.18.11,4.85.1.67,0,1.32-.01,1.97-.03,1.03,0,1.91.18,2.69.49,9.32,3.66,7.37,26.73,7.26,27.88,0,.55-.12,3.64-2.5,5.63-2.56,2.13-6.7,2.11-9.92-.29-.24-.15-.63-.37-1.1-.62-1.17-.91-2-1.6-3.08-2.21,0,0-2.13-1.2-4.69-1.81-3-.71-27.72-4.34-40.45,9.69-1.83,2.02-4.09,5.15-8.02,5.78-4.5.72-8.31-2.28-8.66-2.57-.81-.65-3.1-2.51-3.6-5.41,0-.06-.02-.1-.02-.13C.34,216.84.08,196.58.08,196.58c-.21-16.21,0-20.42.75-25.8.85-6.07,2.05-11.03,2.98-14.45,2.37-6.55,6.14-14.74,12.25-23.17,3.08-4.26,6.24-7.86,9.22-10.88Z" />
      <path class="cls-1" d="M181.98,189.88c-.97,8.36.43,16.91-1.02,25.21-.93,5.27-2.98,10.28-4.36,15.45s-2.07,10.77-.27,15.81c.48,1.34,1.19,2.69,2.41,3.43,1.92,1.17,4.41.48,6.46-.45,6-2.73,11.16-7.29,14.59-12.92,1.27-2.08,2.32-4.32,3.9-6.18,2.3-2.71,5.55-4.43,8.04-6.96,2.48-2.52,4.1-5.75,5.53-8.98,2.73-6.14,4.93-12.51,6.58-19.02.73-2.86,1.35-5.86.71-8.75s-2.84-5.62-5.78-5.95c-3.5-.39-6.49,2.63-8.03,5.8-3.39,6.95-2.94,15.77-8.08,21.55-.92,1.03-2.04,1.95-3.39,2.26s-2.93-.14-3.64-1.33c-.59-1-.46-2.25-.27-3.39.59-3.44,1.62-6.8,1.98-10.28s-.01-7.18-1.99-10.06c-1.87-2.72-5.54-4.5-8.83-3.53s-4.2,5.24-4.55,8.26Z" />
      <path class="cls-1" d="M126.89,180.51c-2.28,2.02-3.47,5.22-3.05,8.24.58,4.19,3.91,7.56,4.68,11.72.71,3.86-.89,7.72-1.9,11.51-1.48,5.56-1.7,11.37-1.65,17.12.05,5.25.44,10.86,3.59,15.06,3.3,4.41,9.26,6.39,14.72,5.68,5.47-.72,10.42-3.83,14.17-7.88,3.75-4.05,6.4-8.98,8.65-14.02,5.3-11.9,8.54-24.83,8.48-37.86,0-.92-.03-1.86-.38-2.7-1.18-2.87-5.36-3.12-8.07-1.62-4.83,2.66-6.79,8.49-8.22,13.82s-3.07,11.16-7.64,14.25c-.66.45-1.44.84-2.23.73-1.98-.26-2.31-2.96-2.18-4.95.35-5.52.13-11.16-1.62-16.41-1.87-5.6-10.23-19-17.34-12.71Z" />
    </g>
  </svg>
